<svg width="64" height="64" viewBox="0 0 64 64" fill="none" xmlns="http://www.w3.org/2000/svg">
<g clip-path="url(#clip0_206_613)">
<path d="M19.3425 47.5426L18.0015 45.8346C16.4976 45.6578 14.9841 45.5769 13.47 45.5926L13.4911 47.112C15.4503 47.0874 17.408 47.2315 19.3425 47.5426ZM50.6328 31.9179C48.9662 31.9009 47.3005 32.0002 45.6477 32.2153L44.6561 33.8872C46.6245 33.5646 48.6171 33.4141 50.6116 33.4373L50.6328 31.9179ZM50.6328 41.0343C46.8534 41.0029 43.0908 41.5405 39.4714 42.6291L38.3069 44.5927C42.262 43.2156 46.4237 42.526 50.6116 42.5537L50.6328 41.0343ZM31.2918 27.4671V29.0258L33.3379 25.5757C32.9089 25.7683 32.4807 25.9437 32.0514 26.151C27.3434 23.811 22.2369 22.3785 16.9988 21.9285L18.2878 23.5702C22.8086 24.1389 27.2033 25.4558 31.2918 27.4671ZM50.6328 36.4761C47.951 36.4462 45.274 36.7121 42.6504 37.269L41.5828 39.0691C44.5337 38.3244 47.5683 37.9635 50.6116 37.9955L50.6328 36.4761ZM50.6116 51.6702L50.6328 50.1508C45.3117 50.1308 40.0416 51.1885 35.1403 53.2601L35.7156 54.666C40.4268 52.669 45.4946 51.6498 50.6116 51.6702ZM50.6328 27.3596C49.9255 27.3498 49.2153 27.367 48.5032 27.4005L47.563 28.9859C48.5844 28.9076 49.6018 28.8644 50.6116 28.8791L50.6328 27.3596ZM50.6116 47.112L50.6328 45.5926C45.6525 45.5716 40.7142 46.5043 36.0845 48.3401L35.4381 49.4298L35.7156 50.1078C40.427 48.1113 45.4947 47.0921 50.6116 47.112ZM3.83032 26.2318V27.0538L4.8772 26.2318H3.83032ZM7.61332 23.9604L6.9812 24.0681V24.5797L7.80591 23.9322C7.74133 23.9428 7.6779 23.9494 7.61332 23.9604ZM10.02 22.0724V22.1935L10.1988 22.0531L10.02 22.0724ZM57.1216 26.2318V24.0681L56.4895 23.9604C55.6826 23.8229 54.8782 23.7085 54.0827 23.6075V22.0725L53.4047 21.9991C52.8635 21.9406 52.3178 21.9188 51.7734 21.8865L50.8984 23.3619C51.4544 23.3814 52.0109 23.3959 52.5634 23.4439V56.6483C45.7545 56.1918 38.9447 57.5254 32.811 60.5167V53.8594L31.2918 56.4211V60.5167C30.6472 60.2184 30.0037 59.9423 29.3604 59.6775L29.1498 60.0327L28.6509 59.3972C24.1061 57.5516 19.2539 56.5797 14.3489 56.5327C13.4085 56.5327 12.4719 56.5712 11.5393 56.6482V37.6048L10.02 35.6699V58.3299L10.1069 58.3205C9.57445 58.3876 9.03897 58.4625 8.50047 58.5455V33.7347L6.9812 31.7998V60.3388L7.86841 60.1876C14.4448 58.9359 21.22 59.2005 27.6787 60.9613H5.34973V29.7221L3.83032 27.7871V62.4807H27.4932V64.0001H36.6096V62.4807H60.2725V26.2318H57.1216ZM54.0828 58.3299V25.1367C54.5863 25.2025 55.0928 25.2732 55.6023 25.3541V58.5454C55.0642 58.4621 54.5292 58.3872 53.9973 58.3206L54.0828 58.3299ZM58.7531 60.9613H36.4237C42.8825 59.2005 49.6579 58.9359 56.2344 60.1876L57.1216 60.3388V27.7512H58.7531V60.9613ZM28.9624 30.4686C26.701 29.5407 24.3651 28.8059 21.9797 28.2721L23.5073 30.2176C25.1658 30.6714 26.7954 31.2248 28.3872 31.8749L28.9624 30.4686ZM15.4515 42.5872L14.2402 41.0446C13.9836 41.0425 13.7258 41.0307 13.47 41.0343L13.4911 42.5537C14.1419 42.5445 14.7958 42.5579 15.4515 42.5872ZM23.6694 53.0532L22.1357 51.0999C19.2949 50.4416 16.386 50.123 13.47 50.1508L13.4911 51.6702C16.9328 51.6389 20.3609 52.1047 23.6694 53.0532ZM27.9604 34.6428C27.5019 34.4674 27.0437 34.2964 26.5857 34.1379L27.5395 35.3527L27.9604 34.6428Z" fill="#331410"/>
<path d="M28.8 54.6661L7.741 27.8471L13.952 22.9691L27.89 40.7191L49.569 4.16406L56.362 8.19206L28.8 54.6661Z" fill="#2EE646"/>
</g>
<defs>
<clipPath id="clip0_206_613">
<rect width="64" height="64" fill="white"/>
</clipPath>
</defs>
</svg>
