<svg width="64" height="64" viewBox="0 0 64 64" fill="none" xmlns="http://www.w3.org/2000/svg">
<g clip-path="url(#clip0_206_647)">
<path d="M19.5891 31.5523C17.3793 31.1716 15.1395 30.9924 12.8972 31.0172L12.9189 32.5793C14.6927 32.5588 16.4654 32.6725 18.2219 32.9194L19.5891 31.5523ZM4.54883 26.7336H6.22607V44.9152L7.78807 43.3532V24.2693C8.31224 24.186 8.83274 24.1133 9.35032 24.0457V41.7909L10.9123 40.2289V22.3052C12.1159 22.2088 13.3238 22.1775 14.5307 22.2113L12.956 20.6367C11.9821 20.66 11.0119 20.7157 10.0473 20.8201L9.35033 20.8954V22.4736C8.5327 22.5774 7.70604 22.695 6.87597 22.8363L6.22606 22.9471V25.1716H2.98682V48.1544L4.54882 46.5924L4.54883 26.7336ZM28.8245 48.2723C27.4932 47.7275 26.1632 47.2522 24.8345 46.8462L23.5688 48.1118C25.1522 48.56 26.7093 49.0962 28.2329 49.7178L28.8245 48.2723ZM28.2329 54.4039L28.8245 52.9585C26.3286 51.9309 23.7439 51.1341 21.1028 50.5779L19.7683 51.9124C22.6692 52.4446 25.5063 53.2796 28.2329 54.4039ZM57.7742 25.1716V22.9471L57.1243 22.8363C56.2947 22.695 55.4678 22.5773 54.6499 22.4735V20.8954L53.9529 20.8201C52.9883 20.7158 52.0178 20.66 51.044 20.6367L49.4695 22.2113C50.6764 22.1775 51.8843 22.2088 53.0879 22.3052V40.2291L54.6499 41.7911V24.0457C55.1675 24.1133 55.6882 24.186 56.2119 24.2693V43.3531L57.7742 44.9153V26.7336H59.4512V46.5924L61.0134 48.1546V25.1716L57.7742 25.1716ZM12.919 37.2654C13.2325 37.261 13.5484 37.2739 13.8633 37.2781L15.377 35.7644C14.5474 35.7189 13.72 35.6916 12.8973 35.7034L12.919 37.2654ZM28.8245 43.5858C28.6487 43.5138 28.4729 43.4532 28.2972 43.3837L27.0879 44.5927C27.4698 44.7371 27.8511 44.8752 28.2329 45.0315L28.8245 43.5858ZM12.919 27.8931C15.6549 27.8651 18.3851 28.1483 21.0569 28.7374L19.0999 26.7805C17.0488 26.456 14.9738 26.3056 12.8973 26.3311L12.919 27.8931ZM36.9122 44.5925L35.7032 43.3837C35.5274 43.4533 35.3516 43.5138 35.1758 43.5858L35.7671 45.0315C36.1489 44.8752 36.5306 44.737 36.9122 44.5925ZM40.4314 48.1118L39.166 46.8463C37.8374 47.2526 36.5073 47.728 35.1758 48.2723L35.7671 49.7177C37.2908 49.0961 38.848 48.5599 40.4314 48.1118ZM59.4512 60.8758H36.4952C43.1353 59.0655 50.1009 58.7935 56.8619 60.0805L57.7743 60.2359V52.1892L56.212 53.7515V58.3922C55.659 58.3066 55.1091 58.2295 54.5621 58.1611L54.65 58.1706V55.3135L51.1416 58.8219L48.6904 56.3709C43.1728 56.6614 37.7667 58.0369 32.7812 60.4188V40.4618L32 39.6806L31.2192 40.4615V60.4188C26.2347 58.0363 20.8294 56.6599 15.3125 56.3683L12.8589 58.8219L9.35034 55.3135V58.1706L9.4397 58.1609C8.89232 58.2298 8.34179 58.3069 7.78809 58.3922V53.7513L6.22609 52.1893V60.2359L7.13845 60.0805C13.8994 58.7937 20.8648 59.0657 27.5049 60.8758H4.54883V50.5121L2.98683 48.9501V62.4379H27.314V63.9999H36.6863V62.4379H61.0134V48.9499L59.4512 50.5123L59.4512 60.8758ZM44.2319 51.9123L42.8979 50.5782C40.2566 51.1342 37.6717 51.931 35.1758 52.9585L35.7671 54.4039C38.4938 53.2795 41.3309 52.4444 44.2319 51.9123ZM44.4128 31.5539L45.7773 32.9185C47.5342 32.6714 49.3073 32.558 51.0813 32.5793L51.1031 31.0172C48.8614 30.9943 46.6222 31.174 44.4128 31.5539ZM51.103 26.331C49.0258 26.3069 46.9503 26.4578 44.8984 26.7822L42.9438 28.7369C45.6155 28.1476 48.3456 27.8645 51.0813 27.8931L51.103 26.331ZM50.1365 37.2777C50.4514 37.2735 50.7676 37.2608 51.0813 37.2654L51.103 35.7034C50.28 35.6916 49.4526 35.7189 48.6233 35.7644L50.1365 37.2777Z" fill="#331410"/>
<path d="M56.993 10.27L51.142 4.41797L32 23.56L12.859 4.41797L7.00699 10.27L26.149 29.411L7.00699 48.552L12.859 54.404L32 35.263L51.142 54.404L56.993 48.552L37.852 29.411L56.993 10.27Z" fill="#E63D2E"/>
</g>
<defs>
<clipPath id="clip0_206_647">
<rect width="64" height="64" fill="white"/>
</clipPath>
</defs>
</svg>
